<svg width="512" height="512" viewBox="0 0 512 512" fill="none" xmlns="http://www.w3.org/2000/svg">
<path d="M0 32C0 14.3269 14.3269 0 32 0H480C497.673 0 512 14.3269 512 32V480C512 497.673 497.673 512 480 512H32C14.3269 512 0 497.673 0 480V32Z" fill="white"/>
<g clip-path="url(#clip0_2_3)">
<g clip-path="url(#clip1_2_3)">
<mask id="mask0_2_3" style="mask-type:luminance" maskUnits="userSpaceOnUse" x="120" y="116" width="259" height="264">
<path d="M120.375 116.748H378.5V379.664H120.375V116.748Z" fill="white"/>
</mask>
<g mask="url(#mask0_2_3)">
<path d="M378.439 223.109C378.439 211.534 376.773 199.392 373.024 188.411C368.411 174.901 361.805 163.503 352.847 152.493C340.29 137.078 322.017 125.948 302.942 120.621C266.19 110.355 223.368 120.859 197.18 149.1C181.795 165.705 173.403 187.161 163.911 207.338C153.465 229.537 142.663 251.588 131.98 273.699C125.463 287.209 119.303 301.196 120.523 316.64C121.802 332.918 128.141 347.351 139.181 359.373C155.787 377.496 184.384 383.359 207.536 376.515C218.607 373.241 229.855 366.962 237.206 357.915C245.598 347.589 250.508 335.358 256.251 323.455C266.934 301.314 277.618 279.175 288.301 257.005C290.92 251.588 293.538 246.142 296.157 240.727L244.437 226.71V298.428C244.437 310.331 243.782 322.801 248.187 334.109C251.014 341.369 254.019 347.261 258.721 353.332C263.423 359.403 268.214 363.837 274.463 368.45C294.967 383.597 324.606 382.763 345.914 369.699C356.002 363.51 365.405 354.404 370.702 343.691C373.41 338.216 375.91 332.352 376.952 326.282C378.201 318.932 378.439 312.058 378.439 304.677C378.439 277.478 378.558 250.249 378.439 223.05C378.38 208.528 365.733 194.631 350.704 195.315C335.677 195.999 322.88 207.516 322.969 223.05C323.059 238.584 322.969 255.07 322.969 271.08V295.184C322.969 302.683 323.535 310.42 322.642 317.89L323.624 310.51C323.148 313.813 322.285 316.998 321.035 320.092L323.833 313.456C322.553 316.432 320.946 319.199 319.011 321.788L323.356 316.164C321.184 318.961 318.714 321.432 315.917 323.604L321.541 319.259C318.655 321.402 315.619 323.187 312.316 324.615L318.952 321.818C315.56 323.217 312.078 324.169 308.447 324.735L315.828 323.753C312.256 324.229 308.805 324.318 305.233 323.871L312.614 324.853C309.549 324.348 306.632 323.515 303.805 322.325L310.442 325.121C307.644 323.842 305.025 322.294 302.555 320.48L308.18 324.824C305.174 322.502 302.555 319.854 300.234 316.849L304.578 322.473C302.526 319.705 300.799 316.76 299.401 313.605L302.198 320.241C300.889 317.057 299.937 313.813 299.401 310.421L300.383 317.801C299.49 310.957 300.026 303.844 300.026 296.94V273.014C300.026 257.57 300.026 242.096 300.026 226.651C300.026 214.926 291.455 202.576 279.642 199.898C274.761 198.797 269.761 198.797 264.881 199.898C258.78 201.296 251.043 206.921 248.305 212.665C239.051 231.888 229.766 251.082 220.511 270.276C215.958 279.74 211.375 289.203 206.822 298.696C202.775 307.117 199.383 316.76 193.699 324.229L198.043 318.605C196.466 320.539 194.74 322.264 192.806 323.842L198.43 319.497C195.99 321.371 193.371 322.919 190.544 324.169L197.18 321.371C193.729 322.801 190.187 323.753 186.467 324.288L193.848 323.306C189.8 323.812 185.783 323.783 181.736 323.306L189.116 324.288C185.128 323.722 181.319 322.681 177.599 321.133L184.236 323.931C181.617 322.77 179.266 321.402 177.004 319.646L182.629 323.991C180.248 322.026 178.165 319.854 176.26 317.474L180.605 323.098C178.284 320.033 176.379 316.789 174.891 313.248L177.689 319.884C176.498 316.849 175.695 313.784 175.248 310.54L176.231 317.92C175.903 314.915 175.933 311.968 176.231 308.962L175.248 316.343C175.844 312.058 177.004 307.981 178.611 303.963L175.814 310.599C180.486 299.559 186.2 288.846 191.407 278.014C196.615 267.181 202.001 256.112 207.269 245.161C212.536 234.209 217.505 223.317 222.773 212.456C226.998 203.766 231.045 194.928 236.997 187.251L232.652 192.875C236.432 188.114 240.717 183.888 245.508 180.168L239.884 184.513C245.122 180.555 250.776 177.281 256.817 174.722L250.18 177.519C256.787 174.782 263.661 172.937 270.744 171.955L263.363 172.937C270.475 172.044 277.588 172.014 284.7 172.907L277.32 171.925C284.135 172.847 290.771 174.633 297.14 177.252L290.503 174.454C296.395 176.954 301.871 180.138 306.96 184.007L301.336 179.662C306.216 183.471 310.531 187.846 314.4 192.696L310.054 187.072C314.162 192.399 317.583 198.142 320.262 204.332L317.465 197.696C320.351 204.629 322.255 211.831 323.268 219.271L322.285 211.89C322.731 215.61 322.999 219.36 322.999 223.109C322.999 237.632 335.766 251.529 350.734 250.844C365.702 250.16 378.499 238.643 378.469 223.109H378.439Z" fill="black"/>
</g>
</g>
</g>
<defs>
<clipPath id="clip0_2_3">
<rect width="280" height="280" fill="white" transform="translate(116 116)"/>
</clipPath>
<clipPath id="clip1_2_3">
<rect width="258.125" height="277.245" fill="white" transform="translate(120.375 110.815)"/>
</clipPath>
</defs>
</svg>
