<svg width="27" height="29" viewBox="0 0 27 29" fill="none" xmlns="http://www.w3.org/2000/svg">
<g clip-path="url(#clip0_290_364)">
<path d="M26.9936 11.7461C26.9936 10.5353 26.8193 9.26528 26.4271 8.11667C25.9446 6.70348 25.2536 5.5113 24.3166 4.35958C23.0031 2.74718 21.0918 1.58301 19.0965 1.02583C15.2523 -0.0480727 10.7731 1.05073 8.03383 4.00473C6.42454 5.74164 5.54674 7.98594 4.55378 10.0964C3.4612 12.4185 2.33127 14.725 1.2138 17.0378C0.532103 18.451 -0.112236 19.914 0.0153864 21.5295C0.149235 23.2322 0.812251 24.7419 1.96708 25.9994C3.704 27.8951 6.69535 28.5083 9.11707 27.7924C10.275 27.45 11.4516 26.7932 12.2205 25.8469C13.0983 24.7668 13.6119 23.4874 14.2126 22.2423C15.3301 19.9264 16.4476 17.6106 17.5651 15.2916C17.839 14.725 18.1129 14.1554 18.3868 13.5889L12.9769 12.1228C12.9769 14.6223 12.9769 17.125 12.9769 19.6245C12.9769 20.8696 12.9084 22.1739 13.3691 23.3567C13.6648 24.1162 13.9792 24.7325 14.471 25.3675C14.9628 26.0025 15.464 26.4663 16.1176 26.9488C18.2623 28.5332 21.3626 28.446 23.5914 27.0795C24.6466 26.4321 25.6302 25.4796 26.1843 24.359C26.4675 23.7863 26.729 23.173 26.838 22.538C26.9687 21.7692 26.9936 21.0502 26.9936 20.2782C26.9936 17.4331 27.006 14.585 26.9936 11.7399C26.9874 10.2209 25.6645 8.76724 24.0925 8.83883C22.5206 8.91042 21.1821 10.1151 21.1914 11.7399C21.2008 13.3648 21.1914 15.0892 21.1914 16.7639V19.2852C21.1914 20.0696 21.2506 20.8789 21.1572 21.6602L21.2599 20.8883C21.2101 21.2338 21.1198 21.5669 20.9891 21.8906L21.2817 21.1964C21.1479 21.5077 20.9798 21.7972 20.7774 22.068L21.2319 21.4797C21.0047 21.7723 20.7463 22.0307 20.4537 22.2579L21.042 21.8034C20.7401 22.0276 20.4226 22.2143 20.0771 22.3637L20.7712 22.0711C20.4164 22.2174 20.0522 22.317 19.6724 22.3762L20.4444 22.2735C20.0708 22.3233 19.7098 22.3326 19.3362 22.2859L20.1082 22.3886C19.7876 22.3357 19.4825 22.2486 19.1868 22.1241L19.881 22.4166C19.5884 22.2828 19.3144 22.1209 19.0561 21.9311L19.6444 22.3855C19.33 22.1427 19.0561 21.8657 18.8133 21.5513L19.2677 22.1396C19.053 21.8501 18.8724 21.542 18.7261 21.212L19.0187 21.9062C18.8818 21.5731 18.7822 21.2338 18.7261 20.879L18.8289 21.6509C18.7355 20.935 18.7915 20.191 18.7915 19.4689V16.9662C18.7915 15.3507 18.7915 13.7321 18.7915 12.1166C18.7915 10.8901 17.895 9.59834 16.6593 9.31819C16.1488 9.20302 15.6258 9.20302 15.1153 9.31819C14.4772 9.46449 13.6679 10.0528 13.3815 10.6536C12.4135 12.6644 11.4423 14.6721 10.4742 16.6798C9.99798 17.6697 9.51861 18.6596 9.04236 19.6525C8.61903 20.5334 8.26418 21.542 7.66964 22.3233L8.1241 21.735C7.95913 21.9373 7.77859 22.1178 7.57626 22.2828L8.16457 21.8283C7.90932 22.0244 7.6354 22.1863 7.33969 22.317L8.03383 22.0244C7.67275 22.1739 7.30234 22.2735 6.91324 22.3295L7.6852 22.2268C7.26187 22.2797 6.84165 22.2766 6.41831 22.2268L7.19028 22.3295C6.77317 22.2703 6.37474 22.1614 5.98564 21.9995L6.67979 22.2921C6.40586 22.1707 6.15996 22.0276 5.92339 21.8439L6.5117 22.2984C6.26268 22.0929 6.04478 21.8657 5.84557 21.6167L6.30003 22.205C6.05724 21.8844 5.85802 21.5451 5.70238 21.1747L5.99498 21.8688C5.87047 21.5513 5.78643 21.2307 5.73973 20.8914L5.84246 21.6634C5.80822 21.349 5.81133 21.0408 5.84246 20.7264L5.73973 21.4984C5.80199 21.0502 5.92339 20.6237 6.09148 20.2035L5.79888 20.8976C6.28758 19.7428 6.88523 18.6222 7.42996 17.4892C7.97469 16.3561 8.5381 15.1982 9.08906 14.0527C9.64001 12.9072 10.1598 11.7679 10.7108 10.6318C11.1528 9.72285 11.5761 8.79836 12.1987 7.99528L11.7442 8.58358C12.1396 8.08555 12.5878 7.64353 13.0889 7.25444L12.5006 7.7089C13.0485 7.29491 13.6399 6.9525 14.2718 6.68481L13.5776 6.97741C14.2687 6.69103 14.9877 6.49804 15.7286 6.39532L14.9566 6.49804C15.7005 6.40466 16.4445 6.40155 17.1884 6.49493L16.4165 6.39221C17.1293 6.4887 17.8234 6.67547 18.4896 6.94939L17.7954 6.65679C18.4117 6.91826 18.9845 7.25133 19.5168 7.65599L18.9285 7.20152C19.439 7.59996 19.8903 8.05753 20.295 8.56491L19.8405 7.9766C20.2701 8.53378 20.628 9.13454 20.9082 9.78199L20.6156 9.08785C20.9175 9.81312 21.1167 10.5664 21.2226 11.3446L21.1198 10.5726C21.1665 10.9617 21.1945 11.3539 21.1945 11.7461C21.1945 13.2652 22.5299 14.7188 24.0956 14.6472C25.6613 14.5756 26.9998 13.371 26.9967 11.7461H26.9936Z" fill="black"/>
</g>
<defs>
<clipPath id="clip0_290_364">
<rect width="27" height="27.5012" fill="white" transform="translate(0 0.620605)"/>
</clipPath>
</defs>
</svg>
