<?xml version="1.0" encoding="UTF-8"?>
<svg id="Layer_1" xmlns="http://www.w3.org/2000/svg" xmlns:xlink="http://www.w3.org/1999/xlink" version="1.1" viewBox="0 0 27 29">
  <defs>
    <style>
      .st0 {
        fill: none;
      }

      .st1 {
        fill: #fff;
      }

      .st2 {
        clip-path: url(#clippath);
      }
    </style>
    <clipPath id="clippath">
      <rect class="st0" y=".6" width="27" height="27.5"/>
    </clipPath>
  </defs>
  <g class="st2">
    <path class="st1" d="M27,11.7c0-1.2-.2-2.5-.6-3.6-.5-1.4-1.2-2.6-2.1-3.8-1.3-1.6-3.2-2.8-5.2-3.3-3.8-1.1-8.3,0-11.1,3-1.6,1.7-2.5,4-3.5,6.1-1.1,2.3-2.2,4.6-3.3,6.9C.5,18.5-.1,19.9,0,21.5c.1,1.7.8,3.2,2,4.5,1.7,1.9,4.7,2.5,7.1,1.8,1.2-.3,2.3-1,3.1-1.9.9-1.1,1.4-2.4,2-3.6,1.1-2.3,2.2-4.6,3.4-7,.3-.6.5-1.1.8-1.7l-5.4-1.5v7.5c0,1.2,0,2.5.4,3.7.3.8.6,1.4,1.1,2,.5.6,1,1.1,1.6,1.6,2.1,1.6,5.2,1.5,7.5.1,1.1-.6,2-1.6,2.6-2.7.3-.6.5-1.2.7-1.8.1-.8.2-1.5.2-2.3,0-2.8,0-5.7,0-8.5,0-1.5-1.3-3-2.9-2.9-1.6,0-2.9,1.3-2.9,2.9,0,1.6,0,3.3,0,5v2.5c0,.8,0,1.6,0,2.4v-.8c0,.3,0,.7-.2,1l.3-.7c-.1.3-.3.6-.5.9l.5-.6c-.2.3-.5.6-.8.8l.6-.5c-.3.2-.6.4-1,.6l.7-.3c-.4.1-.7.2-1.1.3h.8c-.4,0-.7,0-1.1,0h.8c-.3,0-.6,0-.9-.2l.7.3c-.3-.1-.6-.3-.8-.5l.6.5c-.3-.2-.6-.5-.8-.8l.5.6c-.2-.3-.4-.6-.5-.9l.3.7c-.1-.3-.2-.7-.3-1v.8c0-.7,0-1.5,0-2.2v-7.4c0-1.2-.9-2.5-2.1-2.8-.5-.1-1-.1-1.5,0-.6.1-1.4.7-1.7,1.3-1,2-1.9,4-2.9,6-.5,1-1,2-1.4,3-.4.9-.8,1.9-1.4,2.7l.5-.6c-.2.2-.3.4-.5.5l.6-.5c-.3.2-.5.4-.8.5l.7-.3c-.4.1-.7.2-1.1.3h.8c-.4,0-.8,0-1.3-.1h.8c-.4,0-.8,0-1.2-.2l.7.3c-.3-.1-.5-.3-.8-.4l.6.5c-.2-.2-.5-.4-.7-.7l.5.6c-.2-.3-.4-.7-.6-1l.3.7c-.1-.3-.2-.6-.3-1v.8c0-.3,0-.6.1-.9v.8c0-.4,0-.9.2-1.3l-.3.7c.5-1.2,1.1-2.3,1.6-3.4.5-1.1,1.1-2.3,1.7-3.4.6-1.1,1.1-2.3,1.6-3.4.4-.9.9-1.8,1.5-2.6l-.5.6c.4-.5.8-.9,1.3-1.3l-.6.5c.5-.4,1.1-.8,1.8-1l-.7.3c.7-.3,1.4-.5,2.2-.6h-.8c.7,0,1.5,0,2.2,0h-.8c.7,0,1.4.2,2.1.5l-.7-.3c.6.3,1.2.6,1.7,1l-.6-.5c.5.4,1,.9,1.4,1.4l-.5-.6c.4.6.8,1.2,1.1,1.8l-.3-.7c.3.7.5,1.5.6,2.3v-.8c0,.4,0,.8,0,1.2,0,1.5,1.3,3,2.9,2.9s2.9-1.3,2.9-2.9h0Z"/>
  </g>
</svg>
